<svg version="1.2" xmlns="http://www.w3.org/2000/svg" viewBox="0 0 447 447" width="447" height="447">
	<title>zip-file-hand-drawn-interface-symbol-svgrepo-com</title>
	<style>
		.s0 { fill: #ffffff } 
	</style>
	<g>
		<g>
			<path class="s0" d="m381.9 113.2c-0.9-28.6-1.5-67.1-1.2-95.7 0-1.3-0.2-2.4-0.5-3.5 0.6-6.2-3.1-12.8-11-12.5-100.7 2.6-201.3-1.3-301.9-1.5-8.4 0-12.1 7.3-11 13.8-0.4 1.1-0.6 2.3-0.6 3.7 1.5 120.1 5.7 292.6 5.8 412.8 0 2.6 0.7 4.8 2 6.6 0.7 5.1 4.4 9.6 11 9.4 43.5-1.1 87-1.8 130.5-3.9 38.7-1.9 87 0.6 124-12 13.1-4.5 24.9-11.1 34.9-20.7 18.4-17.5 24.7-41 26.2-65.8 1.6-23.8-1.2-48.8-1.8-70.7-1.4-56.7-4.5-103.4-6.4-160zm-63.7 214.2c-7.1 0-13.9 5.6-10.7 14.1 6.3 17 9.2 38.3-0.5 54.6-11.9 19.8-33 19.2-53.1 21.8-12.3 1.5-25.3 0.7-37.7 1-9.6 0.3-131.6 3.3-131.6 3.8-0.3-115.6-4.1-283.7-5.7-399.3 92.9 0.4 185.8 3.6 278.7 1.6-0.3 94.9 8.1 232.1 8.6 307.1-14.4-4.5-29.3-6.4-44.7-5.4-1.2 0.1-2.3 0.4-3.3 0.7zm9.1 79c9.3-15.9 11.7-35.4 6.8-56.5 11.2 0.4 22.3 2.6 32.8 7q0.1 0.2 0.1 0.4c-3.4 25.1-19.2 40.4-39.7 49.1z"/>
			<path class="s0" d="m180.5 240c-9.2 0.5-18.5 0.3-27.7-0.2 10.5-20.7 20.6-41.5 31.7-61.9 5.1-9.3-3.3-17.9-11.3-17.5-0.2 0-0.3-0.1-0.5-0.1h-41.6c-15.1 0-15.1 23.4 0 23.4h23.9c-10 19.3-19.4 38.8-29.3 58.1-4.9 6.2-1.9 18.8 8.9 19.9 15.3 1.6 30.5 2.5 45.9 1.7 15-0.7 15.1-24.1 0-23.4z"/>
			<path class="s0" d="m209.5 168.5c1 27.5 2.5 54.9 1.8 82.4-0.4 15.1 23 15 23.4 0 0.7-27.5-0.8-54.9-1.8-82.4-0.5-15-23.9-15-23.4 0z"/>
			<path fill-rule="evenodd" class="s0" d="m292 186.9v0.1z"/>
			<path class="s0" d="m268.9 156.8c-6.8-0.1-10.5 4.7-11.2 10q-0.4 1.2-0.5 2.6c-2.5 27.1-3.3 54.3-2.6 81.5 0.4 15 23.8 15.1 23.4 0-0.3-10.8-0.3-21.6 0-32.4 17.6-3.7 40.7-14.3 36.9-36-3.5-20.2-29.2-25.4-46-25.7zm23.1 30.2q0 0-0.1 0.1c-0.3 0.7-0.6 1.1-1.9 2.1-3.3 2.5-7.2 4-11.2 5.1q0.4-6.5 0.9-13c2.5 0.5 5 1.1 7.5 2.1 0.7 0.2 3.8 2.4 3.4 2.1 0.1 0.1 0.9 1.1 1.3 1.5 0 0 0 0 0.1 0-0.1-0.1-0.1-0.2-0.2-0.3 0.1 0.1 0.1 0.1 0.2 0.2q0 0 0-0.1 0 0 0 0.1 0 0 0 0.1 0 0 0 0 0.1 0.1 0.1 0.1c-0.1 0-0.1-0.1-0.1-0.1z"/>
			<path fill-rule="evenodd" class="s0" d="m291.9 187.1v-0.1 0.1z"/>
		</g>
	</g>
</svg>